<?xml version="1.0" encoding="utf-8"?>
<!-- Generator: Adobe Illustrator 25.2.1, SVG Export Plug-In . SVG Version: 6.00 Build 0)  -->
<svg version="1.1" id="Layer_2" xmlns="http://www.w3.org/2000/svg" xmlns:xlink="http://www.w3.org/1999/xlink" x="0px" y="0px"
	 viewBox="0 0 146 32" style="enable-background:new 0 0 146 32;" xml:space="preserve">
<style type="text/css">
	.st0{fill:#3AB994;}
	.st1{fill:#5B6770;}
</style>
<path class="st0" d="M51,6h-6l-7.7,4.7l4.9,3.1C45.9,10.5,51,6,51,6z"/>
<path class="st0" d="M2.9,32h19c0,0,6.8-6,13.4-12l-5.1-4.9L2.9,32z"/>
<path class="st0" d="M61,26L42.2,13.9c-2.9,2.6-3.4,3.1-6.8,6.1l6.3,6H61z"/>
<polygon class="st0" points="20.8,0 14.4,0 30.3,15.1 37.3,10.7 "/>
<g>
	<path class="st1" d="M71.9,17.9h6c0,0.7-0.1,1.4-0.3,2c-0.2,0.7-0.6,1.4-1.1,1.9c-0.5,0.5-1.1,0.9-1.8,1.2
		c-0.7,0.3-1.5,0.4-2.4,0.4c-1.1,0-2-0.2-2.8-0.6c-0.8-0.4-1.4-1-1.9-1.6c-0.5-0.7-0.9-1.5-1.1-2.3c-0.2-0.9-0.4-1.8-0.4-2.7
		c0-0.9,0.1-1.8,0.4-2.7c0.2-0.9,0.6-1.7,1.1-2.3c0.5-0.7,1.1-1.2,1.9-1.6c0.8-0.4,1.7-0.6,2.8-0.6c0.8,0,1.5,0.1,2.1,0.4
		c0.6,0.3,1.2,0.6,1.6,1c0.4,0.4,0.8,0.8,1.1,1.3c0.3,0.5,0.4,0.9,0.4,1.4l0,0.5h2.7l-0.1-0.6c-0.2-1-0.5-2-1-2.7
		c-0.5-0.8-1.1-1.4-1.8-2c-0.7-0.5-1.5-0.9-2.4-1.2c-0.9-0.3-1.8-0.4-2.8-0.4c-1.5,0-2.8,0.3-3.9,0.8c-1.1,0.5-2.1,1.3-2.8,2.2
		c-0.7,0.9-1.3,1.9-1.7,3.1c-0.4,1.2-0.5,2.4-0.5,3.7s0.2,2.5,0.5,3.7c0.4,1.2,0.9,2.2,1.7,3.1c0.7,0.9,1.7,1.6,2.8,2.2
		c1.1,0.5,2.4,0.8,3.9,0.8c0.7,0,1.3-0.1,2-0.2c0.6-0.1,1.3-0.4,1.8-0.7c0.6-0.3,1.1-0.7,1.6-1.2c0.1-0.1,0.3-0.3,0.4-0.5l0.2,2.2
		h2.2v-10h-8.5V17.9z"/>
	<path class="st1" d="M97.3,24c-0.1-0.4-0.2-0.8-0.2-1.2c0-0.4-0.1-0.8-0.1-1.3c0-0.4,0-0.8-0.1-1.1c0-0.6-0.1-1.1-0.2-1.6
		c-0.1-0.5-0.3-1-0.6-1.4c-0.3-0.4-0.6-0.7-1.1-1c-0.1,0-0.1-0.1-0.2-0.1c0.6-0.3,1.1-0.7,1.5-1.3c0.6-0.9,1-2,1-3.2
		c0-0.9-0.2-1.6-0.5-2.3C96.4,8.9,96,8.4,95.4,8c-0.5-0.4-1.2-0.7-1.9-0.9c-0.7-0.2-1.4-0.3-2.2-0.3h-8.6v18.8h2.7v-7.9h5.9
		c0.7,0,1.2,0.1,1.6,0.3c0.4,0.3,0.7,0.6,0.9,1c0.2,0.4,0.4,0.9,0.4,1.5c0.1,0.6,0.1,1.2,0.2,1.9c0,0.2,0,0.4,0,0.6
		c0,0.3,0,0.5,0.1,0.8c0,0.3,0.1,0.6,0.1,0.8c0.1,0.3,0.2,0.5,0.3,0.8l0.1,0.2h3.2l-0.7-0.8C97.5,24.5,97.3,24.3,97.3,24z M85.4,9.2
		h5.8c1.1,0,2,0.3,2.5,0.8c0.5,0.5,0.8,1.3,0.8,2.2c0,0.5-0.1,0.9-0.3,1.2c-0.2,0.4-0.4,0.7-0.7,0.9c-0.3,0.3-0.7,0.5-1.1,0.6
		c-0.4,0.1-0.8,0.2-1.3,0.2h-5.8V9.2z"/>
	<polygon class="st1" points="102,17.1 111.9,17.1 111.9,14.6 102,14.6 102,9.2 112.6,9.2 112.6,6.8 99.3,6.8 99.3,25.5 112.7,25.5 
		112.7,23.1 102,23.1 	"/>
	<polygon class="st1" points="116.7,17.1 126.6,17.1 126.6,14.6 116.7,14.6 116.7,9.2 127.3,9.2 127.3,6.8 114,6.8 114,25.5 
		127.4,25.5 127.4,23.1 116.7,23.1 	"/>
	<polygon class="st1" points="141,6.8 141,20.8 131.4,6.8 128.8,6.8 128.8,25.5 131.5,25.5 131.5,11.5 141.1,25.5 143.7,25.5 
		143.7,6.8 	"/>
</g>
</svg>
